<svg xmlns="http://www.w3.org/2000/svg" viewBox="0 0 120 120" width="120" height="120" role="img" aria-label="Lexi đang đọc">
  <path d="M40 44 L44 22 L54 40 Z" fill="#CC785C"></path>
  <path d="M80 44 L76 22 L66 40 Z" fill="#CC785C"></path>
  <circle cx="60" cy="66" r="42" fill="#CC785C"></circle>
  <ellipse cx="44" cy="60" rx="20" ry="22" fill="#FAF9F5"></ellipse>
  <ellipse cx="76" cy="60" rx="20" ry="22" fill="#FAF9F5"></ellipse>
  <circle cx="41" cy="63" r="12.5" fill="none" stroke="#B4633E" stroke-width="3"></circle>
  <circle cx="41" cy="63" r="9" fill="#26241F"></circle>
  <circle cx="73" cy="63" r="12.5" fill="none" stroke="#B4633E" stroke-width="3"></circle>
  <circle cx="73" cy="63" r="9" fill="#26241F"></circle>
  <rect x="26" y="40" width="27" height="4.6" rx="2.3" fill="#B4633E"></rect>
  <rect x="67" y="40" width="27" height="4.6" rx="2.3" fill="#B4633E"></rect>
  <path d="M60 72 L68 83 L60 90 L52 83 Z" fill="#E0C39F"></path>
  <path d="M60 90 Q40 84 20 90 L25 111 Q43 106 60 113 Z" fill="#E0C39F"></path>
  <path d="M60 90 Q80 84 100 90 L95 111 Q77 106 60 113 Z" fill="#E0C39F"></path>
  <path d="M60 88 Q41 82 22 88 L26 108 Q43 103 60 110 Z" fill="#FAF9F5" stroke="#D8CFBB" stroke-width="2"></path>
  <path d="M60 88 Q79 82 98 88 L94 108 Q77 103 60 110 Z" fill="#FAF9F5" stroke="#D8CFBB" stroke-width="2"></path>
  <path d="M30 93 h18 M31 98 h14" stroke="#D8CFBB" stroke-width="1.8" stroke-linecap="round"></path>
  <path d="M72 93 h18 M75 98 h14" stroke="#D8CFBB" stroke-width="1.8" stroke-linecap="round"></path>
  <path d="M60 88 V110" stroke="#D8CFBB" stroke-width="2"></path>
</svg>